OpenSim_Sub07_CSStiffKnee_GRF.mot
version=1
nRows=57
nColumns=19
inDegrees=no
endheader
time	lFx	lFy	lFz	lCOPx	lCOPy	lCOPz	rFx	rFy	rFz	rCOPx	rCOPy	rCOPz	lMx	lMy	lMz	rMx	rMy	rMz
33.67000000	2.50574015	683.52799308	48.93006064	0.50265300	0	-0.63919565	-0.07092981	1.39924669	-0.21778954	0.00000021	0	-0.00000017	0	3.19925068	0	0	-0.00000038	-0.00000000
33.68000000	4.69285203	692.61688430	48.49739455	0.49575084	0	-0.63878656	-0.05040063	1.33179546	-0.25710201	0.00000001	0	0.00000000	0	3.59784824	0	0	-0.00000020	0.00000000
33.69000000	6.63943675	702.04067942	48.32221457	0.48892318	0	-0.63827690	-0.06093743	1.34428908	-0.22842999	-0.00000005	0	0.00000005	0	3.98629233	0	0	-0.00000007	0.00000000
33.70000000	8.29660130	711.32826931	48.31913919	0.48234431	0	-0.63775165	-0.08103713	1.40137309	-0.20794007	-0.00000006	0	0.00000005	0	4.34495763	0	0	-0.00000002	-0.00000000
33.71000000	9.89219068	719.86836245	48.36061839	0.47595220	0	-0.63728374	-0.10344472	1.38795645	-0.21665684	-0.00000007	0	0.00000005	0	4.67357788	0	0	-0.00000002	0.00000000
33.72000000	11.55507343	727.29763299	48.38892392	0.46952924	0	-0.63687658	-0.11794380	1.31897717	-0.21590737	-0.00000008	0	0.00000005	0	4.99315016	0	0	0.00000001	-0.00000000
33.73000000	13.26466089	733.56152211	48.34362939	0.46323016	0	-0.63653686	-0.11920117	1.26643234	-0.20189666	-0.00000004	0	0.00000003	0	5.30692892	0	0	0.00000014	-0.00000000
33.74000000	14.91662015	738.73220933	48.21682938	0.45724177	0	-0.63626783	-0.09829319	1.21735687	-0.17571093	0.00000019	0	-0.00000010	0	5.58015181	0	0	0.00000041	-0.00000000
33.75000000	16.61165378	742.99976124	48.04702390	0.45134150	0	-0.63608526	-0.08907970	1.16817352	-0.15223603	0.00000071	0	-0.00000041	0	5.80666809	0	0	0.00000076	-0.00000000
33.76000000	18.38731435	746.56008001	47.96162139	0.44557974	0	-0.63601962	-0.09898972	1.10761302	-0.16632376	0.00000147	0	-0.00000087	0	5.94751925	0	0	0.00000077	-0.00000000
33.77000000	20.17505717	749.52143567	48.04438223	0.44006531	0	-0.63605840	-0.12127575	1.06174550	-0.14842510	0.00000179	0	-0.00000111	0	6.04295015	0	0	-0.00000052	0.00000000
33.78000000	21.77352919	751.94702941	48.35314732	0.43483788	0	-0.63621014	-0.12285977	1.10061955	-0.08652478	-0.00000008	0	-0.00000012	0	6.08967430	0	0	-0.00000451	-0.00000000
33.79000000	23.21575309	753.35691155	48.80164411	0.42971638	0	-0.63647047	-0.11289869	1.22192238	-0.06948916	-0.00000703	0	0.00000385	0	6.04936037	0	0	-0.00001184	-0.00000000
33.80000000	24.58080360	753.46076146	49.31765414	0.42469022	0	-0.63686199	-0.09920552	1.30471004	-0.07981769	-0.00002120	0	0.00001224	0	5.93504017	0	0	-0.00001912	-0.00000000
33.81000000	25.88250530	752.44631442	49.89457091	0.41985791	0	-0.63736005	-0.08579074	1.39832055	-0.11077274	-0.00003819	0	0.00002283	0	5.80747703	0	0	-0.00001357	-0.00000000
33.82000000	27.00044331	750.81962455	50.55667695	0.41527565	0	-0.63793982	-0.09609383	1.46652431	-0.16584419	-0.00003642	0	0.00002344	0	5.65421626	0	0	0.00003098	0.00000000
33.83000000	28.04762318	748.95017922	51.27903207	0.41076161	0	-0.63855936	-0.10994294	1.51805769	-0.26276216	0.00003341	0	-0.00001490	0	5.44666008	0	0	0.00014624	0.00000000
33.84000000	29.37187183	747.10515493	51.89533634	0.40614491	0	-0.63918244	-0.10357503	1.56267512	-0.36607972	0.00024029	0	-0.00013444	0	5.27635348	0	0	0.00032982	0.00000000
33.85000000	31.18833983	745.78090206	52.26450110	0.40131964	0	-0.63975820	-0.07532287	1.60159142	-0.36229198	0.00060832	0	-0.00035474	0	5.17815785	0	0	0.00045438	-0.00000000
33.86000000	33.30344957	745.33643305	52.25830782	0.39619546	0	-0.64023322	-0.02875243	1.63334744	-0.25972544	0.00094960	0	-0.00057532	0	5.20930049	0	0	0.00013924	-0.00000000
33.87000000	35.49307002	745.30276131	51.91052130	0.39083675	0	-0.64059964	0.05821379	1.60793750	-0.15259613	0.00059803	0	-0.00041470	0	5.35229542	0	0	-0.00129705	-0.00000000
33.88000000	37.78646381	744.56761661	51.40747604	0.38516549	0	-0.64087041	0.21360199	1.42522876	-0.01093830	-0.00177150	0	0.00091306	0	5.50543025	0	0	-0.00449549	0.00000000
33.89000000	40.27649098	742.52714952	50.88671314	0.37930040	0	-0.64107081	0.34064600	0.81323387	0.11458828	-0.00768641	0	0.00436541	0	5.64216996	0	0	-0.00883280	0.00000000
33.90000000	42.86905832	739.02884518	50.41354038	0.37345368	0	-0.64121452	0.06349689	-0.38890715	0.25207039	-0.01679438	0	0.00989098	0	5.75634381	0	0	-0.00997197	0.00000000
33.91000000	45.38570913	734.18818717	50.00826682	0.36779285	0	-0.64131930	-1.37958058	-1.57787571	0.32616721	-0.02222575	0	0.01370202	0	5.82619194	0	0	0.00299004	0.00000000
33.92000000	47.93681952	727.91199290	49.56318648	0.36207893	0	-0.64134960	-4.79853283	-0.54310876	-0.18552243	-0.00430321	0	0.00440717	0	5.86617312	0	0	0.04695864	0.00000000
33.93000000	50.72336166	719.83101421	48.83820151	0.35613513	0	-0.64131230	-9.74257724	7.05517315	-2.00371494	0.07111445	0	-0.03847549	0	5.92231482	0	0	0.13230216	-0.00000000
33.94000000	53.53081098	709.23394141	47.53135500	0.35013193	0	-0.64124396	-12.56061911	27.45293512	-5.76700493	0.23384662	0	-0.13440271	0	6.06126690	0	0	0.22663258	0
33.95000000	55.73075648	695.28354173	45.60920945	0.34423499	0	-0.64113154	-8.43890639	68.80130908	-10.53722099	0.45120467	0	-0.26809516	0	6.23082210	0	0	0.19297626	0
33.96000000	57.05457743	677.11372199	43.23676727	0.33853699	0	-0.64093630	0.31376434	137.55521889	-13.18616159	0.61859341	0	-0.37784983	0	6.32595089	0	0	-0.27030025	-0.00000000
33.97000000	57.59736077	653.65911273	40.44041655	0.33296236	0	-0.64067391	2.54620222	231.02579585	-12.71339030	0.69519596	0	-0.43395240	0	6.39255284	0	0	-0.95375710	0
33.98000000	57.45308373	623.74867549	37.26197642	0.32769761	0	-0.64035551	-6.93638399	334.49848342	-11.19053637	0.71323773	0	-0.45096763	0	6.38799053	0	0	-1.90004263	-0.00000000
33.99000000	56.48478626	586.47536174	33.68196686	0.32281585	0	-0.63995064	-23.67021697	429.63224268	-10.82147218	0.70988438	0	-0.45041045	0	6.26579335	0	0	-2.78854624	0
34	54.50130477	541.66291339	29.59263145	0.31814196	0	-0.63940620	-41.53646476	504.43158074	-11.04851043	0.70344871	0	-0.44597282	0	5.98089521	0	0	-3.52922836	-0.00000000
34.01000000	51.12404881	489.99238266	24.89310887	0.31361840	0	-0.63865746	-56.43872078	556.58250789	-11.42347327	0.69861510	0	-0.44281335	0	5.57063792	0	0	-4.33283285	0.00000000
34.02000000	45.96210372	433.19741596	19.76848007	0.30957892	0	-0.63791845	-68.16061672	590.33934611	-13.01696975	0.69466768	0	-0.44163224	0	5.03270570	0	0	-4.97790166	0
34.03000000	38.90833791	373.73500053	14.67411796	0.30628811	0	-0.63790318	-77.00633191	612.95802778	-15.72479841	0.69042350	0	-0.44162731	0	4.33839790	0	0	-5.52853982	0
34.04000000	30.48491145	314.15708214	10.25569218	0.30374807	0	-0.63985694	-83.01561627	632.64468398	-19.79629125	0.68565855	0	-0.44196485	0	3.43676226	0	0	-5.93805315	0
34.05000000	21.60151528	256.59385430	7.04627533	0.30197246	0	-0.64489469	-85.95317236	654.94931022	-25.16386561	0.68057516	0	-0.44216362	0	2.25141661	0	0	-6.14129374	0
34.06000000	12.38942690	203.09421801	5.33373381	0.30076323	0	-0.65215125	-84.89476768	680.80410975	-31.15771205	0.67514438	0	-0.44208949	0	0.88449113	0	0	-6.22556104	0
34.07000000	2.94062487	155.26810797	5.16302257	0.29991698	0	-0.65497361	-80.09347007	707.25658452	-37.31265360	0.66947847	0	-0.44179009	0	-0.61651623	0	0	-6.23657547	-0.00000000
34.08000000	-5.79818459	114.16755104	5.75257861	0.29567662	0	-0.63639864	-73.29145487	729.50249828	-43.80626433	0.66363244	0	-0.44132798	0	-1.73237912	0	0	-6.14839815	0
34.09000000	-12.12769090	79.97767118	6.30423914	0.27772954	0	-0.56858308	-66.41467951	743.75559904	-50.56378996	0.65770737	0	-0.44074687	0	-2.11516744	0	0	-5.98370359	-0.00000000
34.10000000	-14.82510441	52.28515114	6.16556591	0.23041633	0	-0.43116652	-60.66474499	749.04950190	-56.72522616	0.65171456	0	-0.44016968	0	-1.80067627	0	0	-5.71861288	-0.00000000
34.11000000	-13.41805937	30.49436183	4.65930419	0.14936597	0	-0.25059455	-56.23182021	747.47557695	-61.08222810	0.64614143	0	-0.43966018	0	-1.13966584	0	0	-5.40161094	-0.00000000
34.12000000	-8.73423055	13.97279927	1.55023088	0.06450623	0	-0.09487462	-52.83499970	741.70511490	-63.01723171	0.64121031	0	-0.43921216	0	-0.49426930	0	0	-5.24775706	0.00000000
34.13000000	-3.98274066	3.50133467	-1.71532559	0.01265186	0	-0.01045544	-50.05001871	733.23391278	-62.66076072	0.63656968	0	-0.43882485	0	-0.09824361	0	0	-5.22692387	0
34.14000000	-1.31209231	-1.07736261	-3.53236899	-0.00680558	0	0.01658619	-47.44544747	722.72638882	-60.34893021	0.63180145	0	-0.43849518	0	0.05109748	0	0	-5.19125844	0
34.15000000	-0.48517338	-2.02441841	-4.30663783	-0.00882654	0	0.01613719	-44.53222986	710.90438592	-56.78739461	0.62685906	0	-0.43816009	0	0.06712863	0	0	-5.15663121	-0.00000000
34.16000000	-0.58971668	-1.43309386	-4.54266765	-0.00532548	0	0.00864354	-40.99429083	698.30019046	-53.00439136	0.62163463	0	-0.43781791	0	0.04067633	0	0	-5.16210535	-0.00000000
34.17000000	-0.94282104	-0.62559509	-4.50379716	-0.00196825	0	0.00271691	-36.74492929	685.27972855	-49.84181200	0.61615202	0	-0.43748935	0	0.01510983	0	0	-5.10196061	0
34.18000000	-1.22243757	-0.09675445	-4.52440954	-0.00018332	0	-0.00008779	-32.13800362	672.52587527	-47.63440287	0.61045990	0	-0.43718422	0	0.00146169	0	0	-4.94549511	-0.00000000
34.19000000	-1.36707717	0.17559132	-4.54599718	0.00037119	0	-0.00078732	-27.45861990	661.16199276	-46.10414907	0.60443808	0	-0.43687461	0	-0.00280566	0	0	-4.85060188	0
34.20000000	-1.38125804	0.28429360	-4.63316517	0.00034778	0	-0.00061197	-23.02806094	652.34135132	-44.96219024	0.59811540	0	-0.43656915	0	-0.00264877	0	0	-4.78368951	-0.00000000
34.21000000	-1.31402442	0.27038500	-4.61926247	0.00018266	0	-0.00028604	-19.11053009	646.78920530	-44.02034852	0.59162703	0	-0.43628722	0	-0.00139682	0	0	-4.66412057	0
34.22000000	-1.18615131	0.15114185	-4.50186389	0.00005563	0	-0.00006935	-15.75027409	645.03065273	-43.12319477	0.58521556	0	-0.43595563	0	-0.00042827	0	0	-4.56944926	-0.00000000
34.23000000	-1.01600259	0.09327325	-4.32629829	-0.00000329	0	0.00001949	-12.68237850	647.16915577	-42.42099674	0.57897210	0	-0.43556051	0	0.00002289	0	0	-4.48154870	0
